<svg xmlns="http://www.w3.org/2000/svg" version="1.1" xmlns:xlink="http://www.w3.org/1999/xlink" xmlns:svgjs="http://svgjs.dev/svgjs" width="1000" height="1125" viewBox="0 0 1000 1125"><g transform="matrix(1,0,0,1,1.7053025658242404e-13,0)"><svg viewBox="0 0 320 360" data-background-color="#010c80" preserveAspectRatio="xMidYMid meet" height="1125" width="1000" xmlns="http://www.w3.org/2000/svg" xmlns:xlink="http://www.w3.org/1999/xlink"><g id="tight-bounds" transform="matrix(1,0,0,1,0,0)"><svg viewBox="0 0 320 360" height="360" width="320"><g><svg></svg></g><g><svg viewBox="0 0 320 360" height="360" width="320"><g><path xmlns="http://www.w3.org/2000/svg" d="M20.961 227.22l3.726 4.658-1.863-6.056c-0.466-2.795-3.726 0.466-1.863 1.398M25.153 224.425c1.397 2.329 2.795 4.658 2.795 6.987 0 3.261 2.795 4.658 5.123 5.589-3.261-3.726-5.124-13.974-7.918-12.576M204.017 26.929c7.918 0 15.371-0.932 23.756 0.931 20.495 5.124 37.729 15.371 49.374 29.811l32.606 52.169c1.397 13.042 4.192 27.482 3.726 43.319 3.261 0 2.795-4.658 6.521-5.59-3.726 9.316-5.59 20.961-6.521 34.469-2.329-7.453 0-18.632 0.466-24.687-3.261 5.124-5.124 1.397-5.124-0.932 0.466-3.726-1.397-3.261-2.795-4.658-5.124-4.658-8.384-9.782-12.11-17.7 2.329-6.055 2.795-14.905-4.658-19.563-2.329-1.397-5.124-3.726-6.521-7.453-1.863-5.124-5.124-11.179-4.193-19.097 0.466-2.329-6.987 5.124-11.179 1.863-18.166-12.576-36.332-27.016-58.224-39.127-11.645 0-20.029-4.192-24.221-9.316-3.726-4.658-0.932-10.713 4.658-11.179 3.261 0 6.987-0.932 9.782 0.932 0.466-1.863 2.329-4.192 4.657-4.192M157.904 16.215l0.932 0.466c4.658 0.932 6.987 7.453 12.11 5.124 0 3.261 0.466 6.521-0.466 8.85-1.397 3.726-5.59 3.726-8.85 3.726-31.208-1.863-49.374 11.179-68.471 22.358-5.124 3.261-10.713 5.59-14.906 9.782-20.029 18.632-41.921 35.866-47.045 70.335l-4.192 38.195c-0.466 4.192-5.124 8.384-4.192 13.508l3.26 22.824c-3.261-3.261-5.124 0.932-4.192 2.795 0.466 1.397 2.329 6.055 5.124 1.863 3.726 6.987 7.453 20.495 12.576 26.55 15.837 18.632 36.332 35.4 53.101 52.169 4.192-0.932 7.453-0.932 8.384-3.727 1.397 2.795-1.397 5.59-3.726 6.056 7.453 4.658 15.837 8.85 27.016 9.781 14.44 0.932 27.948 3.261 40.524 6.522 6.521-1.863 13.042-2.795 20.029-3.261 2.329 0 3.726-3.726 6.521-4.658l0.466-4.658c2.795 4.192 2.329-1.397 0.466-4.192 3.261 2.795 4.192 5.124 5.589 6.987 0-1.397 3.726-6.521 3.727-0.466l0.931-6.055c1.397-0.932 1.863 5.124 3.261 0.931 1.397-4.192 4.192-0.932 6.987-2.329-0.932 1.863-0.466 5.59 2.794 3.261l3.727-3.261c2.329 5.59 6.055 3.261 7.918 2.329 20.495-13.042 40.99-28.413 60.553-43.784l-0.466 6.055 2.329-7.453c2.329 2.329 4.192 0.466 5.124-0.931 2.795-4.658 6.521-9.316 12.577-13.508-7.453 20.029-16.303 35.866-27.482 48.908l-4.658 5.59c0 3.261-0.932 7.453-4.658 7.918-1.863 0.466-5.59-0.932-8.384 1.863-1.397 1.863 3.261 5.59-0.466 2.795-3.261-2.329-6.521 0-10.248 0.932-2.795 0.932 1.863 3.726 2.795 5.589 0.932 1.863 1.863 3.726 1.398 6.056l-5.124-5.59c-6.055 3.261-9.782 9.316-14.906 13.974-2.329 1.863-1.397 5.124-1.397 7.918-3.261 0-6.987-0.932-8.85 0.932-1.397 1.863-0.932 4.658-0.932 7.453-4.658-0.466-5.124-7.453-9.315-6.056-4.192 0.932-8.85 1.397-12.577 3.727 2.795 5.59-4.658 2.329-3.726 3.26-6.987-4.192-13.042-7.453-20.495-4.658-15.837-5.124-35.4-2.795-49.84-0.931 0-2.329 0.466-4.658-0.466-5.124-0.932 2.329-3.726 1.397-3.26 1.397-8.85-6.055-17.7-9.782-27.016-14.905-8.384 0.932-16.303-3.261-18.632-5.59-6.521-6.055-13.974-2.795-20.029-4.192-13.042-3.261-17.7-16.769-19.098-26.084-0.932-4.658-4.658-6.521-6.055-6.056-6.055-19.563-15.371-37.263-22.824-55.429-1.863-4.658-1.397-9.316-1.397-14.44 2.329 0.932 4.658 0.466 4.192-2.794-2.329-15.371-7.918-27.016-13.974-38.195 3.261-15.837 3.726-34.469 11.179-48.443 6.521-12.576 18.632-19.098 27.016-29.811 2.795-3.726 2.795-8.85 5.59-12.11 9.316-9.316 18.632-19.098 28.879-27.482 4.658-3.726 10.247 0 17.234-1.397 2.329-8.384 11.645-15.837 20.495-13.508 3.726 0.932 11.179-8.85 13.508-9.782 3.726-1.397 1.863 3.726 1.863 6.987 8.85-6.987 20.961-10.713 32.14-14.906" fill="#f8fafc" fill-rule="nonzero" stroke="none" stroke-width="1" stroke-linecap="butt" stroke-linejoin="miter" stroke-miterlimit="10" stroke-dasharray="" stroke-dashoffset="0" font-family="none" font-weight="none" font-size="none" text-anchor="none" style="mix-blend-mode: normal" data-fill-palette-color="tertiary"></path></g><g transform="matrix(1,0,0,1,64,151.13052158722235)"><svg viewBox="0 0 192 57.73895682555528" height="57.73895682555528" width="192"><g><svg viewBox="0 0 192 57.73895682555528" height="57.73895682555528" width="192"><g><svg viewBox="0 0 192 57.73895682555528" height="57.73895682555528" width="192"><g><svg viewBox="0 0 192 57.73895682555528" height="57.73895682555528" width="192"><g><svg viewBox="0 0 192 57.73895682555528" height="57.73895682555528" width="192"><g><svg viewBox="0 0 192 57.73895682555528" height="57.73895682555528" width="192"><g transform="matrix(1,0,0,1,0,0)"><svg width="192" viewBox="-8.010000228881836 -52.04999923706055 195.63999938964844 58.84000015258789" height="57.73895682555528" data-palette-color="#f8fafc"><path d="M47.66-46.53L47.66-46.53Q47.27-46.29 46.83-46.24 46.39-46.19 45.92-46.12 45.46-46.04 45.07-45.9 44.68-45.75 44.48-45.36L44.48-45.36Q43.99-45.85 43.41-46.19 42.82-46.53 42.24-46.92L42.24-46.92Q41.75-46.78 41.26-46.53 40.77-46.29 40.28-46.29L40.28-46.29Q39.94-46.29 39.6-46.53L39.6-46.53Q39.21-46.24 38.7-46.07 38.18-45.9 37.62-45.75 37.06-45.61 36.6-45.36 36.13-45.12 35.94-44.63L35.94-44.63Q35.84-44.87 35.47-44.78 35.11-44.68 35.06-45.02L35.06-45.02Q33.5-44.48 31.88-44.09 30.27-43.7 28.66-43.26 27.05-42.82 25.49-42.29 23.93-41.75 22.46-40.97L22.46-40.97Q22.41-40.92 22.41-40.82L22.41-40.82Q22.41-40.33 22.56-39.89 22.71-39.45 22.8-39.06L22.8-39.06Q21.92-36.08 21.63-33.01 21.34-29.93 20.85-26.95L20.85-26.95 20.85-26.76Q20.85-26.51 21.04-26.39 21.24-26.27 21.24-25.98L21.24-25.98 21.19-25.88Q20.95-25.73 20.85-25.46 20.75-25.2 20.75-24.9L20.75-24.9Q20.75-24.71 20.85-24.32L20.85-24.32Q20.02-21.53 19.75-18.65 19.48-15.77 19.09-12.89L19.09-12.89 18.65-9.67Q18.55-9.38 18.48-9.11 18.41-8.84 18.41-8.54L18.41-8.54Q18.41-6.98 18.63-5.49 18.85-4 18.75-2.44L18.75-2.44Q19.19-1.76 19.19-1.12L19.19-1.12Q19.19-0.88 19.17-0.63 19.14-0.39 19.09-0.15L19.09-0.15Q19.73 0.49 20.58 0.76 21.44 1.03 22.12 1.61L22.12 1.61 22.12 1.81Q22.12 2.29 21.97 2.76 21.83 3.22 21.73 3.71L21.73 3.71Q21.63 4.1 21.51 4.83 21.39 5.57 21.19 5.81L21.19 5.81Q20.95 6.15 20.48 6.42 20.02 6.69 19.58 6.69L19.58 6.69Q19.43 6.69 19.17 6.54 18.9 6.4 18.75 6.3L18.75 6.3Q18.51 6.3 18.12 6.54 17.72 6.79 17.33 6.79L17.33 6.79Q17.14 6.79 16.99 6.76 16.85 6.74 16.65 6.64L16.65 6.64Q16.46 6.15 16.09 5.79 15.72 5.42 15.23 5.08L15.23 5.08Q15.28 4.39 14.99 4.05 14.7 3.71 14.4 3.17L14.4 3.17Q14.31 2.49 14.23 1.61 14.16 0.73 13.48 0.34L13.48 0.34Q13.72 0 13.72-0.59L13.72-0.59Q13.72-0.83 13.65-1.12 13.57-1.42 13.33-1.56L13.33-1.56 13.33-1.66Q13.28-1.9 13.5-2.03 13.72-2.15 13.72-2.39L13.72-2.39 13.72-2.59Q13.38-4.15 13.38-5.86L13.38-5.86Q13.38-7.47 13.48-9.06 13.57-10.64 13.48-12.26L13.48-12.26Q13.77-12.5 13.94-13.04 14.11-13.57 14.21-14.21 14.31-14.84 14.33-15.45 14.36-16.06 14.4-16.46L14.4-16.46Q14.65-19.24 15.19-21.95 15.72-24.66 15.82-27.49L15.82-27.49Q16.06-27.88 16.11-28.52 16.16-29.15 16.16-29.86 16.16-30.57 16.26-31.25 16.36-31.93 16.65-32.42L16.65-32.42Q16.65-33.79 16.89-35.18 17.14-36.57 17.14-37.99L17.14-37.99Q17.14-38.67 16.99-39.4L16.99-39.4Q16.5-39.6 16.11-39.6L16.11-39.6Q15.58-39.6 15.01-39.38 14.45-39.16 14.21-38.72L14.21-38.72Q13.13-38.67 12.11-38.38 11.08-38.09 10.06-38.09L10.06-38.09 9.57-38.09Q9.38-38.09 9.13-38.13L9.13-38.13Q8.79-37.99 8.42-37.89 8.06-37.79 8.11-37.3L8.11-37.3Q6.59-37.16 5.15-36.67 3.71-36.18 2.29-35.62 0.88-35.06-0.56-34.57-2-34.08-3.52-33.94L-3.52-33.94Q-4.05-33.69-4.2-32.91L-4.2-32.91Q-5.27-33.01-6.01-33.45-6.74-33.89-7.71-34.28L-7.71-34.28Q-8.01-35.3-8.01-36.23L-8.01-36.23Q-8.01-37.45-7.52-38.57-7.03-39.7-5.96-40.23L-5.96-40.23Q-5.71-40.19-5.52-40.16-5.32-40.14-5.08-40.14L-5.08-40.14Q-4.3-40.14-3.52-40.43-2.73-40.72-1.9-40.72L-1.9-40.72Q-1.66-40.72-1.37-40.58L-1.37-40.58Q-1.03-40.77-0.51-40.89 0-41.02 0.46-41.14 0.93-41.26 1.32-41.5 1.71-41.75 1.81-42.19L1.81-42.19Q2.05-41.99 2.34-41.94 2.64-41.89 2.93-41.89L2.93-41.89Q3.56-41.89 4.25-42.14 4.93-42.38 5.32-42.92L5.32-42.92Q5.66-42.53 6.3-42.53L6.3-42.53Q6.98-42.53 7.64-42.9 8.3-43.26 8.94-43.26L8.94-43.26Q9.42-43.26 9.67-42.92L9.67-42.92Q10.21-43.36 10.94-43.6 11.67-43.85 12.43-44.04 13.18-44.24 13.84-44.48 14.5-44.73 14.89-45.17L14.89-45.17Q15.14-45.12 15.67-45.12L15.67-45.12Q16.5-45.12 17.26-45.34 18.02-45.56 18.8-45.75L18.8-45.75 19.82-45.85Q20.21-45.9 20.53-46.09 20.85-46.29 21.19-46.44 21.53-46.58 21.9-46.68 22.27-46.78 22.8-46.73L22.8-46.73Q23.97-47.36 25.29-47.71 26.61-48.05 27.98-48.32 29.35-48.58 30.66-48.95 31.98-49.32 33.15-50.05L33.15-50.05 33.3-50.05Q34.28-50.05 35.23-50.39 36.18-50.73 37.01-51.32L37.01-51.32Q37.16-51.27 37.3-51.27L37.3-51.27 37.65-51.27Q39.01-51.27 40.31-51.66 41.6-52.05 43.02-52.05L43.02-52.05Q43.85-52.05 44.34-51.83 44.82-51.61 45.21-51.29 45.61-50.98 46.04-50.68 46.48-50.39 47.17-50.24L47.17-50.24Q47.61-49.41 47.61-48.46 47.61-47.51 47.66-46.53ZM63.67-28.27L63.67-28.27Q63.38-27.83 63.33-27.29 63.28-26.76 63.28-26.32L63.28-26.32Q63.28-25.73 63.3-25.17 63.33-24.61 63.33-24.07L63.33-24.07 63.33-23.34Q63.23-23 63.03-22.66 62.84-22.31 62.74-21.97L62.74-21.97Q62.06-20.17 62.06-18.36L62.06-18.36 62.06-18.26Q61.81-17.68 61.59-17.19 61.37-16.7 61.18-16.24 60.98-15.77 60.89-15.26 60.79-14.75 60.84-14.06L60.84-14.06Q60.15-12.35 59.03-10.96 57.91-9.57 56.83-8.11L56.83-8.11Q55.81-7.71 54.95-7.08 54.1-6.45 53.32-5.66L53.32-5.66Q51.8-5.18 50.34-4.54 48.87-3.91 47.7-2.83L47.7-2.83Q46.77-2.73 45.85-2.54 44.92-2.34 44.04-1.95L44.04-1.95 43.45-1.95Q43.02-1.95 42.82-2.15L42.82-2.15Q42.19-1.81 41.5-1.68 40.82-1.56 40.13-1.56L40.13-1.56Q39.26-1.56 38.4-1.68 37.55-1.81 36.67-1.95L36.67-1.95Q36.18-2.64 35.3-3 34.42-3.37 33.74-3.71L33.74-3.71Q32.32-5.66 31.69-7.5 31.05-9.33 30.37-11.62L30.37-11.62Q30.47-12.3 30.71-12.96 30.95-13.62 30.91-14.4L30.91-14.4Q31.78-16.94 33.23-19.02 34.67-21.09 36.52-23L36.52-23Q36.52-23.29 36.64-23.49 36.77-23.68 36.67-24.07L36.67-24.07Q36.72-24.02 36.86-24.02L36.86-24.02Q37.25-24.02 37.35-24.24 37.45-24.46 37.4-24.76L37.4-24.76Q39.16-25.88 40.6-27.34 42.04-28.81 43.89-29.79L43.89-29.79Q44.04-30.22 44.38-30.52 44.72-30.81 44.92-31.2L44.92-31.2Q46.48-31.64 47.75-32.52 49.02-33.4 50.44-34.08L50.44-34.08Q51.22-34.52 51.93-34.69 52.63-34.86 53.46-35.06L53.46-35.06Q53.76-35.16 54-35.21 54.25-35.25 54.54-35.25L54.54-35.25Q55.42-35.25 56.25-34.94 57.08-34.62 57.96-34.62L57.96-34.62Q58.2-34.62 58.37-34.64 58.54-34.67 58.74-34.72L58.74-34.72Q59.57-33.69 60.84-33.15L60.84-33.15Q61.13-32.42 61.55-31.88 61.96-31.35 62.4-30.83 62.84-30.32 63.21-29.71 63.57-29.1 63.67-28.27ZM58.79-25.73L58.79-25.73Q58.79-25.98 58.74-26.17L58.74-26.17Q58.25-26.32 57.81-26.56 57.37-26.81 56.83-26.81L56.83-26.81Q56.49-26.81 56.15-26.66L56.15-26.66Q56.1-27 55.88-27.15 55.66-27.29 55.39-27.42 55.12-27.54 54.86-27.61 54.59-27.69 54.39-27.88L54.39-27.88Q54.25-28.27 54.07-28.69 53.9-29.1 53.46-29.3L53.46-29.3Q53.02-28.86 52.44-28.59 51.85-28.32 51.24-28.08 50.63-27.83 50.07-27.49 49.51-27.15 49.12-26.66L49.12-26.66 48.24-26.66Q47.95-26.12 47.41-25.85 46.87-25.59 46.48-25.1L46.48-25.1Q45.7-24.71 45.04-24.15 44.38-23.58 43.75-22.97 43.11-22.36 42.5-21.73 41.89-21.09 41.21-20.56L41.21-20.56Q40.57-19.19 39.82-18.19 39.06-17.19 38.4-16.16 37.74-15.14 37.28-13.94 36.81-12.74 36.81-10.99L36.81-10.99 36.81-10.5Q36.81-10.25 36.86-10.01L36.86-10.01Q37.5-9.33 37.91-8.54 38.33-7.76 39.3-7.42L39.3-7.42Q40.28-7.03 41.38-7.08 42.48-7.13 43.5-6.84L43.5-6.84Q45.85-7.28 48.02-8.28 50.19-9.28 52.15-10.69L52.15-10.69Q52.44-10.94 52.83-11.21 53.22-11.47 53.46-11.77L53.46-11.77Q53.71-12.01 53.88-12.3 54.05-12.6 54.25-12.84L54.25-12.84Q54.64-13.48 55.12-14.11 55.61-14.75 56.15-15.28L56.15-15.28Q56.39-16.36 56.78-17.36 57.18-18.36 57.57-19.34 57.96-20.31 58.23-21.34 58.49-22.36 58.49-23.49L58.49-23.49Q58.49-23.73 58.47-24.02 58.44-24.32 58.4-24.56L58.4-24.56Q58.79-25.1 58.79-25.73ZM103.66-34.42L103.66-34.42Q103.66-33.98 103.46-33.59L103.46-33.59 103.12-32.86Q102.97-32.52 102.83-32.13 102.68-31.74 102.73-31.2L102.73-31.2Q102.05-30.42 101.36-29.69 100.68-28.96 100.14-28.03L100.14-28.03Q99.6-28.08 99.34-27.78 99.07-27.49 98.92-27L98.92-27Q97.9-26.66 97.11-25.95 96.33-25.24 95.75-24.41L95.75-24.41Q93.16-23.34 90.91-21.78 88.67-20.21 86.81-18.12L86.81-18.12Q87.69-18.12 88.54-17.92 89.4-17.72 90.25-17.5 91.11-17.29 91.94-17.11 92.77-16.94 93.65-17.04L93.65-17.04Q94.28-16.46 95.09-16.06 95.89-15.67 96.7-15.33 97.5-14.99 98.26-14.55 99.02-14.11 99.6-13.48L99.6-13.48Q99.6-13.38 99.58-13.31 99.56-13.23 99.56-13.13L99.56-13.13Q99.56-12.74 99.75-12.38 99.95-12.01 99.95-11.62L99.95-11.62Q99.7-11.23 99.51-10.79 99.31-10.35 99.04-10.01 98.77-9.67 98.43-9.42 98.09-9.18 97.5-9.13L97.5-9.13Q97.26-8.3 96.72-7.84 96.19-7.37 95.53-7.01 94.87-6.64 94.23-6.27 93.6-5.91 93.16-5.32L93.16-5.32Q91.69-4.98 90.3-4.37 88.91-3.76 87.84-2.64L87.84-2.64Q87.1-2.54 86.35-2.42 85.59-2.29 84.86-2.29L84.86-2.29Q83.83-2.29 83.2-2.71 82.56-3.13 82.47-4.25L82.47-4.25Q82.61-4.59 82.91-4.83L82.91-4.83 83.54-5.32Q83.88-5.57 84.15-5.83 84.42-6.1 84.57-6.49L84.57-6.49Q84.66-6.49 84.81-6.47 84.96-6.45 85.1-6.45L85.1-6.45Q85.69-6.45 86.03-6.69 86.37-6.93 86.69-7.18 87.01-7.42 87.4-7.62 87.79-7.81 88.42-7.76L88.42-7.76Q88.76-8.4 89.45-8.72 90.13-9.03 90.86-9.3 91.6-9.57 92.26-9.94 92.91-10.3 93.16-11.04L93.16-11.04Q92.91-11.43 92.52-11.65 92.13-11.87 91.65-12.01L91.65-12.01 90.72-12.3Q90.28-12.45 89.94-12.65L89.94-12.65Q89.4-12.5 88.91-12.5L88.91-12.5Q87.89-12.5 86.91-12.7 85.93-12.89 84.91-12.89L84.91-12.89Q83.98-12.89 83.3-12.65L83.3-12.65Q83.05-12.7 82.78-12.79 82.51-12.89 82.27-12.99L82.27-12.99Q81.15-12.55 79.93-12.55L79.93-12.55 76.75-12.55Q76.36-12.55 75.97-12.45L75.97-12.45Q75.43-11.47 75.43-10.35L75.43-10.35Q75.43-9.52 75.68-8.76 75.92-8.01 76.17-7.18L76.17-7.18Q77.14-6.3 77.97-5.1 78.8-3.91 78.8-2.49L78.8-2.49Q78.8-2.15 78.75-1.95L78.75-1.95Q78.27-2.29 77.49-2.29L77.49-2.29Q76.8-2.29 76.19-2.1 75.58-1.9 74.9-1.81L74.9-1.81Q74.36-2.05 73.77-2.32 73.19-2.59 72.65-2.98L72.65-2.98Q72.26-3.81 71.87-4.57 71.48-5.32 70.89-6.01L70.89-6.01 70.89-6.2Q70.89-7.91 70.62-9.57 70.36-11.23 70.36-12.94L70.36-12.94Q70.36-13.72 70.43-14.53 70.5-15.33 70.89-16.02L70.89-16.02Q70.75-17.19 70.75-18.46L70.75-18.46Q70.75-21 71.04-23.54 71.33-26.07 71.33-28.71L71.33-28.71Q71.33-29.25 71.31-29.79 71.28-30.32 71.24-30.86L71.24-30.86 71.04-30.86Q70.41-30.86 69.82-30.69 69.23-30.52 68.65-30.32 68.06-30.13 67.43-29.96 66.79-29.79 66.16-29.79L66.16-29.79Q65.77-29.59 65.52-29.39 65.28-29.2 65.03-29.05 64.79-28.91 64.47-28.81 64.16-28.71 63.72-28.76L63.72-28.76Q63.18-28.42 62.86-28.25 62.54-28.08 61.96-27.88L61.96-27.88Q61.66-27.78 61.47-27.59L61.47-27.59 61.08-27.25Q60.88-27.1 60.64-26.95 60.4-26.81 60-26.81L60-26.81Q59.66-26.81 59.52-26.86L59.52-26.86Q59.22-27.1 59-27.44 58.78-27.78 58.56-28.1 58.34-28.42 58.08-28.69 57.81-28.96 57.42-29.1L57.42-29.1Q57.61-29.35 57.59-29.52 57.56-29.69 57.56-29.93L57.56-29.93Q57.56-30.08 57.61-30.13L57.61-30.13Q57.86-31.01 58.49-31.52 59.13-32.03 59.91-32.35 60.69-32.67 61.49-32.91 62.3-33.15 62.98-33.5L62.98-33.5Q64.89-33.45 66.45-33.86 68.01-34.28 69.67-35.06L69.67-35.06Q69.97-34.91 70.26-34.91L70.26-34.91Q70.5-34.91 70.75-34.96L70.75-34.96 71.24-35.06Q71.82-35.55 72.5-35.69 73.19-35.84 73.87-35.94 74.56-36.04 75.19-36.16 75.83-36.28 76.31-36.67L76.31-36.67 76.51-36.67Q77.68-36.67 78.88-37.06 80.07-37.45 81.2-37.35L81.2-37.35Q82.17-37.89 83-38.04 83.83-38.18 84.91-38.18L84.91-38.18Q85.15-38.18 85.49-38.4 85.83-38.62 86.32-38.62L86.32-38.62Q86.42-38.62 86.49-38.6 86.57-38.57 86.66-38.57L86.66-38.57Q87.1-38.57 87.28-38.87 87.45-39.16 88.18-39.16L88.18-39.16Q88.52-39.16 88.81-39.14 89.11-39.11 89.4-39.11L89.4-39.11Q89.74-39.11 89.84-39.38 89.94-39.65 90.28-39.6L90.28-39.6Q90.42-39.4 90.77-39.43 91.11-39.45 91.3-39.45L91.3-39.45Q91.65-39.45 91.69-39.26L91.69-39.26Q92.48-39.75 93.43-39.89 94.38-40.04 95.26-40.04L95.26-40.04Q95.6-40.04 95.94-40.01 96.28-39.99 96.67-39.94L96.67-39.94Q97.11-40.23 97.7-40.23L97.7-40.23Q98.04-40.23 98.8-39.94 99.56-39.65 100.39-39.26 101.22-38.87 101.9-38.43 102.58-37.99 102.73-37.7L102.73-37.7Q102.83-37.6 102.85-37.26 102.88-36.91 102.97-36.67L102.97-36.67Q103.22-36.08 103.44-35.57 103.66-35.06 103.66-34.42ZM98.24-33.89L98.24-33.89Q98.24-33.98 98.21-34.11 98.19-34.23 98.19-34.33L98.19-34.33Q97.94-34.62 97.53-34.77 97.11-34.91 96.65-35.01 96.19-35.11 95.72-35.18 95.26-35.25 94.92-35.4L94.92-35.4Q93.89-35.06 92.67-35.06L92.67-35.06Q91.55-35.06 90.67-35.4L90.67-35.4Q90.23-34.96 89.55-34.72 88.86-34.47 88.11-34.35 87.35-34.23 86.59-34.2 85.83-34.18 85.25-34.18L85.25-34.18Q85.05-34.18 84.57-33.89 84.08-33.59 83.69-33.59L83.69-33.59Q83.39-33.59 83.15-33.84L83.15-33.84Q82.71-33.5 81.93-33.25 81.15-33.01 80.32-32.84 79.49-32.67 78.63-32.47 77.78-32.28 77.19-32.08L77.19-32.08Q76.61-30.81 76.56-29.32 76.51-27.83 76.51-26.42L76.51-26.42Q76.51-25.59 76.41-24.8 76.31-24.02 76.31-23.19L76.31-23.19Q76.31-22.8 76.36-22.39 76.41-21.97 76.66-21.58L76.66-21.58Q76.26-21.29 76.14-20.83 76.02-20.36 76.02-19.92L76.02-19.92Q76.02-19.38 76.12-18.95 76.22-18.51 76.31-18.12L76.31-18.12Q77.88-18.26 79.17-18.7 80.46-19.14 81.61-19.78 82.76-20.41 83.83-21.24 84.91-22.07 86.08-23L86.08-23Q86.57-23.1 86.88-23.29 87.2-23.49 87.69-23.49L87.69-23.49Q87.89-24.17 88.42-24.44 88.96-24.71 89.25-25.24L89.25-25.24Q89.84-25.39 90.25-25.66 90.67-25.93 91.06-26.2 91.45-26.46 91.91-26.71 92.38-26.95 92.96-27L92.96-27Q93.79-27.98 94.7-28.96 95.6-29.93 96.82-30.52L96.82-30.52Q97.02-31.01 97.26-31.37 97.5-31.74 97.72-32.1 97.94-32.47 98.09-32.89 98.24-33.3 98.24-33.89ZM140.91-34.42L140.91-34.42Q140.91-33.98 140.72-33.59L140.72-33.59 140.37-32.86Q140.23-32.52 140.08-32.13 139.93-31.74 139.98-31.2L139.98-31.2Q139.3-30.42 138.62-29.69 137.93-28.96 137.39-28.03L137.39-28.03Q136.86-28.08 136.59-27.78 136.32-27.49 136.17-27L136.17-27Q135.15-26.66 134.37-25.95 133.59-25.24 133-24.41L133-24.41Q130.41-23.34 128.17-21.78 125.92-20.21 124.06-18.12L124.06-18.12Q124.94-18.12 125.8-17.92 126.65-17.72 127.51-17.5 128.36-17.29 129.19-17.11 130.02-16.94 130.9-17.04L130.9-17.04Q131.54-16.46 132.34-16.06 133.15-15.67 133.95-15.33 134.76-14.99 135.51-14.55 136.27-14.11 136.86-13.48L136.86-13.48Q136.86-13.38 136.83-13.31 136.81-13.23 136.81-13.13L136.81-13.13Q136.81-12.74 137-12.38 137.2-12.01 137.2-11.62L137.2-11.62Q136.96-11.23 136.76-10.79 136.56-10.35 136.3-10.01 136.03-9.67 135.69-9.42 135.34-9.18 134.76-9.13L134.76-9.13Q134.51-8.3 133.98-7.84 133.44-7.37 132.78-7.01 132.12-6.64 131.49-6.27 130.85-5.91 130.41-5.32L130.41-5.32Q128.95-4.98 127.56-4.37 126.16-3.76 125.09-2.64L125.09-2.64Q124.36-2.54 123.6-2.42 122.84-2.29 122.11-2.29L122.11-2.29Q121.09-2.29 120.45-2.71 119.82-3.13 119.72-4.25L119.72-4.25Q119.87-4.59 120.16-4.83L120.16-4.83 120.79-5.32Q121.14-5.57 121.4-5.83 121.67-6.1 121.82-6.49L121.82-6.49Q121.92-6.49 122.06-6.47 122.21-6.45 122.36-6.45L122.36-6.45Q122.94-6.45 123.28-6.69 123.63-6.93 123.94-7.18 124.26-7.42 124.65-7.62 125.04-7.81 125.68-7.76L125.68-7.76Q126.02-8.4 126.7-8.72 127.39-9.03 128.12-9.3 128.85-9.57 129.51-9.94 130.17-10.3 130.41-11.04L130.41-11.04Q130.17-11.43 129.78-11.65 129.39-11.87 128.9-12.01L128.9-12.01 127.97-12.3Q127.53-12.45 127.19-12.65L127.19-12.65Q126.65-12.5 126.16-12.5L126.16-12.5Q125.14-12.5 124.16-12.7 123.19-12.89 122.16-12.89L122.16-12.89Q121.23-12.89 120.55-12.65L120.55-12.65Q120.31-12.7 120.04-12.79 119.77-12.89 119.52-12.99L119.52-12.99Q118.4-12.55 117.18-12.55L117.18-12.55 114.01-12.55Q113.62-12.55 113.22-12.45L113.22-12.45Q112.69-11.47 112.69-10.35L112.69-10.35Q112.69-9.52 112.93-8.76 113.18-8.01 113.42-7.18L113.42-7.18Q114.4-6.3 115.23-5.1 116.06-3.91 116.06-2.49L116.06-2.49Q116.06-2.15 116.01-1.95L116.01-1.95Q115.52-2.29 114.74-2.29L114.74-2.29Q114.06-2.29 113.44-2.1 112.83-1.9 112.15-1.81L112.15-1.81Q111.61-2.05 111.03-2.32 110.44-2.59 109.9-2.98L109.9-2.98Q109.51-3.81 109.12-4.57 108.73-5.32 108.15-6.01L108.15-6.01 108.15-6.2Q108.15-7.91 107.88-9.57 107.61-11.23 107.61-12.94L107.61-12.94Q107.61-13.72 107.68-14.53 107.76-15.33 108.15-16.02L108.15-16.02Q108-17.19 108-18.46L108-18.46Q108-21 108.29-23.54 108.59-26.07 108.59-28.71L108.59-28.71Q108.59-29.25 108.56-29.79 108.54-30.32 108.49-30.86L108.49-30.86 108.29-30.86Q107.66-30.86 107.07-30.69 106.49-30.52 105.9-30.32 105.31-30.13 104.68-29.96 104.05-29.79 103.41-29.79L103.41-29.79Q103.02-29.59 102.78-29.39 102.53-29.2 102.29-29.05 102.04-28.91 101.73-28.81 101.41-28.71 100.97-28.76L100.97-28.76Q100.43-28.42 100.11-28.25 99.8-28.08 99.21-27.88L99.21-27.88Q98.92-27.78 98.72-27.59L98.72-27.59 98.33-27.25Q98.14-27.1 97.89-26.95 97.65-26.81 97.26-26.81L97.26-26.81Q96.92-26.81 96.77-26.86L96.77-26.86Q96.48-27.1 96.26-27.44 96.04-27.78 95.82-28.1 95.6-28.42 95.33-28.69 95.06-28.96 94.67-29.1L94.67-29.1Q94.87-29.35 94.84-29.52 94.82-29.69 94.82-29.93L94.82-29.93Q94.82-30.08 94.87-30.13L94.87-30.13Q95.11-31.01 95.74-31.52 96.38-32.03 97.16-32.35 97.94-32.67 98.75-32.91 99.55-33.15 100.24-33.5L100.24-33.5Q102.14-33.45 103.7-33.86 105.27-34.28 106.93-35.06L106.93-35.06Q107.22-34.91 107.51-34.91L107.51-34.91Q107.76-34.91 108-34.96L108-34.96 108.49-35.06Q109.07-35.55 109.76-35.69 110.44-35.84 111.13-35.94 111.81-36.04 112.44-36.16 113.08-36.28 113.57-36.67L113.57-36.67 113.76-36.67Q114.93-36.67 116.13-37.06 117.33-37.45 118.45-37.35L118.45-37.35Q119.43-37.89 120.26-38.04 121.09-38.18 122.16-38.18L122.16-38.18Q122.4-38.18 122.75-38.4 123.09-38.62 123.58-38.62L123.58-38.62Q123.67-38.62 123.75-38.6 123.82-38.57 123.92-38.57L123.92-38.57Q124.36-38.57 124.53-38.87 124.7-39.16 125.43-39.16L125.43-39.16Q125.77-39.16 126.07-39.14 126.36-39.11 126.65-39.11L126.65-39.11Q126.99-39.11 127.09-39.38 127.19-39.65 127.53-39.6L127.53-39.6Q127.68-39.4 128.02-39.43 128.36-39.45 128.56-39.45L128.56-39.45Q128.9-39.45 128.95-39.26L128.95-39.26Q129.73-39.75 130.68-39.89 131.63-40.04 132.51-40.04L132.51-40.04Q132.85-40.04 133.2-40.01 133.54-39.99 133.93-39.94L133.93-39.94Q134.37-40.23 134.95-40.23L134.95-40.23Q135.3-40.23 136.05-39.94 136.81-39.65 137.64-39.26 138.47-38.87 139.15-38.43 139.84-37.99 139.98-37.7L139.98-37.7Q140.08-37.6 140.1-37.26 140.13-36.91 140.23-36.67L140.23-36.67Q140.47-36.08 140.69-35.57 140.91-35.06 140.91-34.42ZM135.49-33.89L135.49-33.89Q135.49-33.98 135.47-34.11 135.44-34.23 135.44-34.33L135.44-34.33Q135.2-34.62 134.78-34.77 134.37-34.91 133.9-35.01 133.44-35.11 132.98-35.18 132.51-35.25 132.17-35.4L132.17-35.4Q131.14-35.06 129.92-35.06L129.92-35.06Q128.8-35.06 127.92-35.4L127.92-35.4Q127.48-34.96 126.8-34.72 126.12-34.47 125.36-34.35 124.6-34.23 123.85-34.2 123.09-34.18 122.5-34.18L122.5-34.18Q122.31-34.18 121.82-33.89 121.33-33.59 120.94-33.59L120.94-33.59Q120.65-33.59 120.4-33.84L120.4-33.84Q119.96-33.5 119.18-33.25 118.4-33.01 117.57-32.84 116.74-32.67 115.89-32.47 115.03-32.28 114.45-32.08L114.45-32.08Q113.86-30.81 113.81-29.32 113.76-27.83 113.76-26.42L113.76-26.42Q113.76-25.59 113.66-24.8 113.57-24.02 113.57-23.19L113.57-23.19Q113.57-22.8 113.62-22.39 113.66-21.97 113.91-21.58L113.91-21.58Q113.52-21.29 113.4-20.83 113.27-20.36 113.27-19.92L113.27-19.92Q113.27-19.38 113.37-18.95 113.47-18.51 113.57-18.12L113.57-18.12Q115.13-18.26 116.42-18.7 117.72-19.14 118.86-19.78 120.01-20.41 121.09-21.24 122.16-22.07 123.33-23L123.33-23Q123.82-23.1 124.14-23.29 124.46-23.49 124.94-23.49L124.94-23.49Q125.14-24.17 125.68-24.44 126.21-24.71 126.51-25.24L126.51-25.24Q127.09-25.39 127.51-25.66 127.92-25.93 128.31-26.2 128.7-26.46 129.17-26.71 129.63-26.95 130.22-27L130.22-27Q131.05-27.98 131.95-28.96 132.85-29.93 134.07-30.52L134.07-30.52Q134.27-31.01 134.51-31.37 134.76-31.74 134.98-32.1 135.2-32.47 135.34-32.89 135.49-33.3 135.49-33.89ZM152.09-6.69L152.09-6.69Q151.85-6.3 151.5-5.98 151.16-5.66 150.87-5.32L150.87-5.32Q150.53-5.18 150.11-5.18 149.7-5.18 149.33-5.2 148.96-5.22 148.65-5.2 148.33-5.18 148.13-4.98L148.13-4.98Q147.74-5.08 147.55-5.35 147.35-5.62 146.87-5.66L146.87-5.66Q146.67-5.71 146.47-5.66L146.47-5.66Q145.74-6.49 145.13-7.42 144.52-8.35 143.98-9.18L143.98-9.18Q143.94-10.99 143.69-12.84L143.69-12.84Q143.64-13.28 143.54-13.72 143.45-14.16 143.4-14.55L143.4-14.55Q143.4-15.04 143.47-15.5 143.54-15.97 143.59-16.36L143.59-16.36Q143.79-17.77 144.03-19.14 144.28-20.51 144.47-21.92L144.47-21.92Q144.67-23.19 144.67-24.58 144.67-25.98 144.23-27.2L144.23-27.2 144.18-27.44Q144.28-27.83 144.4-28.1 144.52-28.37 144.57-28.71L144.57-28.71Q144.67-29.25 144.33-29.49L144.33-29.49Q144.47-29.88 144.81-30 145.16-30.13 145.2-30.57L145.2-30.57Q145.25-30.76 145.2-30.96L145.2-30.96Q145.6-31.1 146.01-31.23 146.43-31.35 146.82-31.25L146.82-31.25Q147.45-31.15 147.94-30.83 148.43-30.52 148.87-30.13L148.87-30.13Q149.65-27.78 149.5-25.17 149.36-22.56 149.01-19.92 148.67-17.29 148.57-14.77 148.48-12.26 149.36-10.11L149.36-10.11 149.45-10.06Q149.7-10.01 149.84-10.23 149.99-10.45 150.23-10.4L150.23-10.4Q150.43-10.3 150.48-10.3L150.48-10.3Q150.67-9.33 151.11-8.45 151.55-7.57 152.09-6.69ZM187.63-31.05L187.63-31.05 187.63-30.86Q187.29-30.76 187.29-30.37L187.29-30.37Q186.76-30.13 186.17-30 185.58-29.88 185.05-29.64L185.05-29.64Q184.51-29.69 183.95-29.71 183.39-29.74 182.85-29.74L182.85-29.74Q181.38-29.74 179.92-29.64 178.45-29.54 176.99-29.64L176.99-29.64Q176.31-29.25 175.5-29.03 174.69-28.81 173.96-28.81L173.96-28.81Q173.38-28.81 172.94-28.96L172.94-28.96Q171.76-28.37 170.37-27.98 168.98-27.59 167.57-27.22 166.15-26.86 164.86-26.39 163.56-25.93 162.59-25.1L162.59-25.1Q162.49-24.41 162.44-23.75 162.39-23.1 162.39-22.46L162.39-22.46Q162.39-21.78 162.46-21.19 162.54-20.61 162.78-20.02L162.78-20.02Q163.02-19.92 163.34-19.87 163.66-19.82 163.9-19.82L163.9-19.82Q164.15-19.82 164.39-19.9 164.64-19.97 164.73-20.21L164.73-20.21Q165.47-20.31 166.2-20.29 166.93-20.26 167.66-20.26L167.66-20.26Q168.4-20.26 169.1-20.31 169.81-20.36 170.5-20.56L170.5-20.56Q171.28-20.75 172.03-20.8 172.79-20.85 173.52-20.9 174.26-20.95 175.04-21.07 175.82-21.19 176.65-21.58L176.65-21.58Q177.28-21.34 177.94-21.34 178.6-21.34 179.24-21.24L179.24-21.24Q179.58-21 179.8-20.7 180.02-20.41 180.02-20.02L180.02-20.02Q180.02-19.34 179.53-18.65 179.04-17.97 178.75-17.38L178.75-17.38 178.21-17.38Q177.04-17.38 175.94-17.07 174.84-16.75 173.74-16.33 172.64-15.92 171.55-15.6 170.45-15.28 169.27-15.28L169.27-15.28Q169.08-15.28 169.05-15.06 169.03-14.84 168.93-14.75L168.93-14.75Q168.69-14.79 168.2-14.79L168.2-14.79Q167.08-14.79 166.05-14.55 165.03-14.31 163.95-14.31L163.95-14.31Q163.66-14.31 163.37-14.33 163.07-14.36 162.78-14.4L162.78-14.4Q162.54-14.01 162.15-13.89 161.76-13.77 161.41-13.48L161.41-13.48Q161.27-13.04 161.24-12.4 161.22-11.77 161.19-11.11 161.17-10.45 161.07-9.86 160.97-9.28 160.68-8.94L160.68-8.94Q160.73-8.69 161.07-8.76 161.41-8.84 161.41-8.45L161.41-8.45Q161.41-8.01 161.32-7.52 161.22-7.03 161.22-6.54L161.22-6.54Q161.22-5.62 161.44-4.52 161.66-3.42 162.12-2.49 162.59-1.56 163.37-0.95 164.15-0.34 165.32-0.34L165.32-0.34Q166.1-0.34 166.78-0.63 167.47-0.93 167.91-1.61L167.91-1.61 168.15-1.66Q168.35-1.66 168.52-1.61 168.69-1.56 168.88-1.56L168.88-1.56Q169.18-1.56 169.64-1.93 170.1-2.29 170.67-2.78 171.23-3.27 171.81-3.74 172.4-4.2 172.94-4.39L172.94-4.39Q173.28-5.08 173.6-5.76 173.91-6.45 174.55-6.84L174.55-6.84 174.55-8.25Q175.04-8.79 175.6-9.23 176.16-9.67 176.45-10.35L176.45-10.35Q176.7-10.25 176.92-10.21 177.14-10.16 177.38-10.16L177.38-10.16Q177.62-10.16 177.89-10.21 178.16-10.25 178.41-10.35L178.41-10.35Q178.8-9.81 179.02-9.16 179.24-8.5 179.58-7.91L179.58-7.91Q179.14-7.03 178.55-5.81 177.97-4.59 177.28-3.37 176.6-2.15 175.84-1.05 175.09 0.05 174.35 0.63L174.35 0.63Q174.21 0.78 173.72 0.98L173.72 0.98Q173.18 1.37 172.74 1.73 172.3 2.1 171.91 2.59L171.91 2.59Q170.5 3.03 169.2 3.76 167.91 4.49 166.64 5.18L166.64 5.18Q166.05 5.03 165.37 5.03L165.37 5.03Q164.78 5.03 164.2 5.1 163.61 5.18 162.93 5.18L162.93 5.18Q162.73 4.93 162.37 4.86 162 4.79 162.1 4.35L162.1 4.35Q160.44 4.25 159.41 3.44 158.39 2.64 157.68 1.46 156.97 0.29 156.53-1.07 156.09-2.44 155.6-3.71L155.6-3.71 155.6-3.86Q155.6-4.1 155.8-4.15 155.99-4.2 155.99-4.44L155.99-4.44Q155.99-4.54 155.94-4.59L155.94-4.59Q155.8-5.13 155.7-5.52 155.6-5.91 155.6-6.45L155.6-6.45Q155.6-7.23 155.7-7.98 155.8-8.74 155.8-9.52L155.8-9.52Q155.8-10.3 155.6-10.89L155.6-10.89Q155.8-11.13 155.92-11.55 156.04-11.96 156.09-12.4 156.14-12.84 156.16-13.28 156.19-13.72 156.29-14.06L156.29-14.06Q156.09-14.6 155.94-15.01 155.8-15.43 155.8-16.02L155.8-16.02 155.8-16.36Q156.29-17.19 156.63-18.07 156.97-18.95 157.36-19.87L157.36-19.87 157.36-20.02Q157.36-21.44 157.26-22.85 157.17-24.27 157.17-25.68L157.17-25.68 157.17-26.61Q157.17-27.1 157.21-27.54L157.21-27.54Q157.6-27.73 157.8-28.08 158-28.42 158.39-28.61L158.39-28.61 160-28.61 160.29-29.1Q160.44-29.35 160.49-29.64L160.49-29.64Q161.02-29.79 161.54-30.05 162.05-30.32 162.49-30.62L162.49-30.62Q163.17-31.01 163.73-31.32 164.29-31.64 164.86-31.86 165.42-32.08 166.05-32.23 166.69-32.37 167.52-32.47L167.52-32.47Q167.91-32.47 168.03-32.62 168.15-32.76 168.4-32.96L168.4-32.96Q168.98-32.86 169.57-32.79 170.15-32.71 170.74-32.71L170.74-32.71Q171.91-32.71 172.94-33.15L172.94-33.15Q174.4-33.15 175.84-33.2 177.28-33.25 178.75-33.25L178.75-33.25Q180.02-33.25 181.29-33.15 182.56-33.06 183.78-32.81L183.78-32.81Q184.22-32.96 184.75-32.96L184.75-32.96Q185.34-32.96 185.95-32.84 186.56-32.71 187.15-32.81L187.15-32.81Q187.19-32.28 187.41-31.91 187.63-31.54 187.63-31.05Z" opacity="1" transform="matrix(1,0,0,1,0,0)" fill="#f8fafc" class="undefined-text-0" data-fill-palette-color="primary" id="text-0"></path></svg></g></svg></g></svg></g></svg></g><g></g></svg></g></svg></g></svg></g></svg></g><defs></defs></svg><rect width="320" height="360" fill="none" stroke="none" visibility="hidden"></rect></g></svg></g></svg>